# xmcd
#
# Track frame offsets:
# 183
# 13228
# 35763
# 49800
# 66063
# 78253
# 96775
# 119360
# 132133
# 143720
# 161078
# 181393
# 194923
# 210708
# 229105
# 249215
# 260510
#
# Disc length: 3696 seconds
#
#
# Revision: 0
# Processed by: cddbd v1.5.2PL0 Copyright (c) Steve Scherf et al.
# Submitted via: FreeRIP 2.944 
#
DISCID=f40e6e11
DTITLE=Various Artist - Blues ballads
DYEAR=1900
DGENRE=Blues
TTITLE0=Muddy Waters Manish boy
TTITLE1=Snowy White Bird of Paradise
TTITLE2=Clapton Mayall Ramblin on my Mind
TTITLE3=Brendan Croker No Money At All
TTITLE4=John Lee Hooker I'm In The Mood
TTITLE5=Brother Booze Harry Muskee
TTITLE6=Gerry Moore Still got the Blues for You
TTITLE7=Fleetwood Mac Man of the World
TTITLE8=Etta James I'd Rahter Go Blind
TTITLE9=Oscar Benton Bensonhurst Blues
TTITLE10=David Lee Johnson River Come Down
TTITLE11=Lightnin'Hopkins Lovin'Arms
TTITLE12=Screamin' Jay Hawkins I put a Spell on You
TTITLE13=Rory Block Lovin' Whiskey
TTITLE14=BB King Sweet Sixteen
TTITLE15=John Lee Hooker Boom Boom
TTITLE16=Robert Cray Whos's been Talkin'
EXTD=
EXTT0=
EXTT1=
EXTT2=
EXTT3=
EXTT4=
EXTT5=
EXTT6=
EXTT7=
EXTT8=
EXTT9=
EXTT10=
EXTT11=
EXTT12=
EXTT13=
EXTT14=
EXTT15=
EXTT16=
PLAYORDER=
